<svg xmlns="http://www.w3.org/2000/svg" width="20" height="16" fill="#737373"><path fill="#737373" fill-rule="evenodd" d="M9.205.554c.3-.738 1.35-.739 1.651-.002l1.8 4.398c.02.05.066.084.12.09l4.419.432c.76.074 1.08 1.004.526 1.527l-3.373 3.182a.145.145 0 0 0-.042.135l.966 4.613c.16.764-.678 1.347-1.344.934l-3.808-2.362a.146.146 0 0 0-.152-.001l-3.85 2.33c-.666.404-1.494-.179-1.334-.939l.962-4.595a.146.146 0 0 0-.043-.136L2.285 6.992c-.563-.522-.242-1.461.523-1.533l4.49-.422c.054-.005.1-.04.12-.09L9.206.554Z" clip-rule="evenodd"/></svg>